<!-- Generated by IcoMoon.io -->
<svg version="1.1" xmlns="http://www.w3.org/2000/svg" width="32" height="32" viewBox="0 0 32 32">
<title>align-left</title>
<path d="M32 24v2.272q0 0.48-0.352 0.8t-0.8 0.352h-29.696q-0.48 0-0.8-0.352t-0.352-0.8v-2.272q0-0.48 0.352-0.8t0.8-0.352h29.696q0.48 0 0.8 0.352t0.352 0.8zM25.152 17.152v2.272q0 0.48-0.352 0.8t-0.8 0.352h-22.848q-0.48 0-0.8-0.352t-0.352-0.8v-2.272q0-0.48 0.352-0.8t0.8-0.352h22.848q0.48 0 0.8 0.352t0.352 0.8zM29.728 10.272v2.304q0 0.448-0.352 0.8t-0.8 0.352h-27.424q-0.48 0-0.8-0.352t-0.352-0.8v-2.304q0-0.448 0.352-0.8t0.8-0.32h27.424q0.448 0 0.8 0.32t0.352 0.8zM22.848 3.424v2.304q0 0.448-0.32 0.8t-0.8 0.32h-20.576q-0.48 0-0.8-0.32t-0.352-0.8v-2.304q0-0.448 0.352-0.8t0.8-0.352h20.576q0.448 0 0.8 0.352t0.32 0.8z"></path>
</svg>
