<!-- Generated by IcoMoon.io -->
<svg version="1.1" xmlns="http://www.w3.org/2000/svg" width="37" height="32" viewBox="0 0 37 32">
<title>ioxhost</title>
<path d="M26.112 14.848q0 0.64-0.416 1.088t-1.12 0.448h-12.512q-0.64 0-1.088-0.448t-0.448-1.088 0.448-1.088 1.088-0.448h12.512q0.672 0 1.12 0.448t0.416 1.088zM29.952 14.848q0-1.536-0.416-3.040h-17.536q-0.64 0-1.088-0.448t-0.448-1.056q0-0.64 0.448-1.088t1.088-0.448h16.224q-1.568-2.56-4.192-4.064t-5.728-1.504q-3.168 0-5.856 1.568t-4.256 4.256-1.536 5.824q0 1.536 0.384 3.040h17.536q0.672 0 1.12 0.448t0.416 1.088q0 0.64-0.416 1.088t-1.12 0.448h-16.192q1.568 2.528 4.192 4.032t5.728 1.504q2.368 0 4.512-0.928t3.712-2.464 2.496-3.712 0.928-4.544zM36.576 10.304q0 0.608-0.448 1.056t-1.088 0.448h-2.336q0.288 1.536 0.288 3.040 0 2.976-1.152 5.728t-3.136 4.672-4.704 3.168-5.696 1.152q-4.384 0-8-2.368t-5.376-6.24h-3.392q-0.64 0-1.088-0.448t-0.448-1.088 0.448-1.088 1.088-0.448h2.368q-0.32-1.504-0.32-3.040 0-2.976 1.184-5.696t3.136-4.704 4.672-3.136 5.728-1.184q4.384 0 8 2.4t5.376 6.24h3.36q0.64 0 1.088 0.448t0.448 1.088z"></path>
</svg>
