<!-- Generated by IcoMoon.io -->
<svg version="1.1" xmlns="http://www.w3.org/2000/svg" width="25" height="32" viewBox="0 0 25 32">
<title>user-md</title>
<path d="M6.848 24q0 0.448-0.32 0.8t-0.8 0.352-0.8-0.352-0.352-0.8 0.352-0.8 0.8-0.352 0.8 0.352 0.32 0.8zM25.152 25.088q0 2.176-1.312 3.392t-3.456 1.248h-15.616q-2.144 0-3.456-1.248t-1.312-3.392q0-1.216 0.096-2.336t0.448-2.464 0.832-2.368 1.44-1.856 2.144-1.056q-0.384 0.928-0.384 2.144v3.616q-1.024 0.352-1.664 1.248t-0.64 1.984q0 1.44 1.024 2.432t2.432 0.992 2.432-0.992 0.992-2.432q0-1.088-0.64-1.984t-1.664-1.248v-3.616q0-1.12 0.448-1.664 2.368 1.856 5.28 1.856t5.28-1.856q0.416 0.544 0.416 1.664v1.12q-1.888 0-3.232 1.344t-1.312 3.232v1.6q-0.576 0.512-0.576 1.28 0 0.704 0.48 1.184t1.216 0.512 1.216-0.512 0.512-1.184q0-0.768-0.576-1.28v-1.6q0-0.928 0.672-1.6t1.6-0.672 1.632 0.672 0.672 1.6v1.6q-0.576 0.512-0.576 1.28 0 0.704 0.512 1.184t1.216 0.512 1.216-0.512 0.48-1.184q0-0.768-0.576-1.28v-1.6q0-1.216-0.608-2.272t-1.664-1.664q0-0.192 0-0.768t0-0.864-0.032-0.736-0.128-0.832-0.224-0.704q1.216 0.256 2.144 1.056t1.44 1.856 0.832 2.368 0.448 2.464 0.096 2.336zM19.424 9.152q0 2.816-2.016 4.832t-4.832 2.016-4.864-2.016-1.984-4.832 1.984-4.864 4.864-2.016 4.832 2.016 2.016 4.864z"></path>
</svg>
