<svg aria-hidden="true" style="position: absolute; width: 0; height: 0; overflow: hidden;" version="1.1" xmlns="http://www.w3.org/2000/svg" xmlns:xlink="http://www.w3.org/1999/xlink">
<defs>
<symbol id="icon-ok" viewBox="0 0 32 32">
<path d="M29.856 10.112q0 0.704-0.512 1.216l-15.36 15.36q-0.512 0.48-1.216 0.48t-1.216-0.48l-8.896-8.896q-0.48-0.512-0.48-1.216t0.48-1.216l2.432-2.432q0.512-0.512 1.216-0.512t1.216 0.512l5.248 5.28 11.712-11.744q0.512-0.512 1.216-0.512t1.216 0.512l2.432 2.432q0.512 0.48 0.512 1.216z"></path>
</symbol>
<symbol id="icon-trash-empty" viewBox="0 0 25 32">
<path d="M9.152 13.152v10.272q0 0.256-0.16 0.416t-0.416 0.16h-1.152q-0.256 0-0.416-0.16t-0.16-0.416v-10.272q0-0.256 0.16-0.416t0.416-0.16h1.152q0.256 0 0.416 0.16t0.16 0.416zM13.728 13.152v10.272q0 0.256-0.16 0.416t-0.416 0.16h-1.152q-0.256 0-0.416-0.16t-0.16-0.416v-10.272q0-0.256 0.16-0.416t0.416-0.16h1.152q0.256 0 0.416 0.16t0.16 0.416zM18.272 13.152v10.272q0 0.256-0.16 0.416t-0.384 0.16h-1.152q-0.256 0-0.416-0.16t-0.16-0.416v-10.272q0-0.256 0.16-0.416t0.416-0.16h1.152q0.224 0 0.384 0.16t0.16 0.416zM20.576 26.080v-16.928h-16v16.928q0 0.384 0.128 0.704t0.256 0.48 0.192 0.16h14.848q0.064 0 0.192-0.16t0.256-0.48 0.128-0.704zM8.576 6.848h8l-0.864-2.080q-0.128-0.16-0.288-0.192h-5.664q-0.192 0.032-0.32 0.192zM25.152 7.424v1.152q0 0.256-0.16 0.416t-0.416 0.16h-1.728v16.928q0 1.472-0.832 2.56t-2.016 1.088h-14.848q-1.184 0-2.016-1.056t-0.864-2.528v-16.992h-1.696q-0.256 0-0.416-0.16t-0.16-0.416v-1.152q0-0.256 0.16-0.416t0.416-0.16h5.504l1.248-2.976q0.288-0.672 0.992-1.12t1.408-0.48h5.696q0.736 0 1.408 0.48t0.96 1.12l1.248 2.976h5.536q0.256 0 0.416 0.16t0.16 0.416z"></path>
</symbol>
<symbol id="icon-calendar" viewBox="0 0 30 32">
<path d="M2.272 29.728h5.152v-5.152h-5.152v5.152zM8.576 29.728h5.696v-5.152h-5.696v5.152zM2.272 23.424h5.152v-5.696h-5.152v5.696zM8.576 23.424h5.696v-5.696h-5.696v5.696zM2.272 16.576h5.152v-5.152h-5.152v5.152zM15.424 29.728h5.728v-5.152h-5.728v5.152zM8.576 16.576h5.696v-5.152h-5.696v5.152zM22.272 29.728h5.152v-5.152h-5.152v5.152zM15.424 23.424h5.728v-5.696h-5.728v5.696zM9.152 8v-5.152q0-0.224-0.192-0.384t-0.384-0.192h-1.152q-0.224 0-0.384 0.192t-0.192 0.384v5.152q0 0.224 0.192 0.416t0.384 0.16h1.152q0.224 0 0.384-0.16t0.192-0.416zM22.272 23.424h5.152v-5.696h-5.152v5.696zM15.424 16.576h5.728v-5.152h-5.728v5.152zM22.272 16.576h5.152v-5.152h-5.152v5.152zM22.848 8v-5.152q0-0.224-0.16-0.384t-0.416-0.192h-1.12q-0.224 0-0.416 0.192t-0.16 0.384v5.152q0 0.224 0.16 0.416t0.416 0.16h1.12q0.256 0 0.416-0.16t0.16-0.416zM29.728 6.848v22.88q0 0.928-0.704 1.6t-1.6 0.672h-25.152q-0.928 0-1.6-0.672t-0.672-1.6v-22.88q0-0.928 0.672-1.6t1.6-0.672h2.304v-1.728q0-1.184 0.832-2.016t2.016-0.832h1.152q1.184 0 2.016 0.832t0.832 2.016v1.728h6.848v-1.728q0-1.184 0.864-2.016t2.016-0.832h1.12q1.184 0 2.048 0.832t0.832 2.016v1.728h2.272q0.928 0 1.6 0.672t0.704 1.6z"></path>
</symbol>
<symbol id="icon-align-left" viewBox="0 0 32 32">
<path d="M32 24v2.272q0 0.48-0.352 0.8t-0.8 0.352h-29.696q-0.48 0-0.8-0.352t-0.352-0.8v-2.272q0-0.48 0.352-0.8t0.8-0.352h29.696q0.48 0 0.8 0.352t0.352 0.8zM25.152 17.152v2.272q0 0.48-0.352 0.8t-0.8 0.352h-22.848q-0.48 0-0.8-0.352t-0.352-0.8v-2.272q0-0.48 0.352-0.8t0.8-0.352h22.848q0.48 0 0.8 0.352t0.352 0.8zM29.728 10.272v2.304q0 0.448-0.352 0.8t-0.8 0.352h-27.424q-0.48 0-0.8-0.352t-0.352-0.8v-2.304q0-0.448 0.352-0.8t0.8-0.32h27.424q0.448 0 0.8 0.32t0.352 0.8zM22.848 3.424v2.304q0 0.448-0.32 0.8t-0.8 0.32h-20.576q-0.48 0-0.8-0.32t-0.352-0.8v-2.304q0-0.448 0.352-0.8t0.8-0.352h20.576q0.448 0 0.8 0.352t0.32 0.8z"></path>
</symbol>
<symbol id="icon-user" viewBox="0 0 23 32">
<path d="M22.848 24.992q0 1.92-1.12 3.328t-2.688 1.408h-15.232q-1.568 0-2.688-1.408t-1.12-3.328q0-1.536 0.16-2.88t0.544-2.72 1.056-2.336 1.664-1.6 2.432-0.608q2.336 2.304 5.568 2.304t5.6-2.304q1.344 0 2.4 0.608t1.664 1.6 1.056 2.336 0.576 2.72 0.128 2.88zM18.272 9.152q0 2.816-1.984 4.832t-4.864 2.016-4.832-2.016-2.016-4.832 2.016-4.864 4.832-2.016 4.864 2.016 1.984 4.864z"></path>
</symbol>
<symbol id="icon-phone" viewBox="0 0 25 32">
<path d="M25.152 22.144q0 0.48-0.192 1.248t-0.384 1.216q-0.352 0.896-2.176 1.92-1.664 0.896-3.296 0.896-0.48 0-0.96-0.064t-1.024-0.224-0.832-0.256-0.992-0.352-0.896-0.32q-1.728-0.64-3.104-1.504-2.272-1.408-4.736-3.84t-3.84-4.736q-0.864-1.376-1.472-3.104-0.064-0.16-0.32-0.896t-0.384-0.992-0.256-0.832-0.224-1.024-0.064-0.928q0-1.664 0.928-3.328 0.992-1.824 1.888-2.176 0.448-0.192 1.216-0.384t1.248-0.192q0.256 0 0.384 0.064 0.32 0.096 0.96 1.344 0.192 0.352 0.512 0.992t0.64 1.12 0.544 0.96q0.064 0.064 0.32 0.448t0.384 0.64 0.128 0.512q0 0.352-0.512 0.864t-1.12 0.992-1.088 0.96-0.512 0.8q0 0.16 0.096 0.416t0.128 0.352 0.256 0.448 0.224 0.32q1.344 2.464 3.104 4.224t4.192 3.104q0.032 0 0.32 0.192t0.448 0.256 0.352 0.16 0.416 0.064q0.32 0 0.8-0.512t0.96-1.088 0.992-1.12 0.896-0.512q0.224 0 0.48 0.128t0.64 0.384 0.448 0.32q0.448 0.256 0.96 0.544t1.152 0.64 0.96 0.544q1.248 0.608 1.344 0.928 0.064 0.128 0.064 0.384z"></path>
</symbol>
<symbol id="icon-mail" viewBox="0 0 32 32">
<path d="M29.728 26.848v-13.696q-0.576 0.64-1.248 1.152-4.768 3.68-7.616 6.048-0.896 0.768-1.472 1.184t-1.536 0.896-1.824 0.416h-0.064q-0.832 0-1.824-0.416t-1.536-0.896-1.472-1.184q-2.816-2.368-7.616-6.048-0.672-0.512-1.248-1.152v13.696q0 0.224 0.192 0.416t0.384 0.16h26.304q0.224 0 0.384-0.16t0.192-0.416zM29.728 8.096v-0.448t-0.032-0.224-0.032-0.224-0.096-0.16-0.16-0.128-0.256-0.064h-26.304q-0.224 0-0.384 0.192t-0.192 0.384q0 3.008 2.656 5.088 3.424 2.688 7.136 5.632 0.128 0.096 0.64 0.544t0.8 0.672 0.8 0.544 0.896 0.512 0.768 0.16h0.064q0.352 0 0.768-0.16t0.896-0.512 0.8-0.544 0.8-0.672 0.64-0.544q3.712-2.944 7.168-5.632 0.96-0.768 1.792-2.080t0.832-2.336zM32 7.424v19.424q0 1.184-0.832 2.016t-2.016 0.864h-26.304q-1.152 0-2.016-0.864t-0.832-2.016v-19.424q0-1.184 0.832-2.016t2.016-0.832h26.304q1.184 0 2.016 0.832t0.832 2.016z"></path>
</symbol>
<symbol id="icon-home" viewBox="0 0 30 32">
<path d="M25.152 17.728v8.544q0 0.48-0.352 0.8t-0.8 0.352h-6.848v-6.848h-4.576v6.848h-6.848q-0.48 0-0.8-0.352t-0.352-0.8v-8.544q0-0.032 0-0.064t0-0.064l10.272-8.448 10.272 8.448q0.032 0.032 0.032 0.128zM29.12 16.48l-1.088 1.312q-0.16 0.16-0.384 0.192h-0.064q-0.224 0-0.384-0.096l-12.352-10.304-12.352 10.304q-0.224 0.128-0.416 0.096-0.224-0.032-0.384-0.192l-1.12-1.312q-0.128-0.192-0.096-0.416t0.192-0.384l12.832-10.688q0.576-0.48 1.344-0.48t1.376 0.48l4.352 3.616v-3.456q0-0.256 0.16-0.416t0.416-0.16h3.424q0.256 0 0.416 0.16t0.16 0.416v7.264l3.904 3.264q0.192 0.128 0.192 0.384t-0.128 0.416z"></path>
</symbol>
<symbol id="icon-user-md" viewBox="0 0 25 32">
<path d="M6.848 24q0 0.448-0.32 0.8t-0.8 0.352-0.8-0.352-0.352-0.8 0.352-0.8 0.8-0.352 0.8 0.352 0.32 0.8zM25.152 25.088q0 2.176-1.312 3.392t-3.456 1.248h-15.616q-2.144 0-3.456-1.248t-1.312-3.392q0-1.216 0.096-2.336t0.448-2.464 0.832-2.368 1.44-1.856 2.144-1.056q-0.384 0.928-0.384 2.144v3.616q-1.024 0.352-1.664 1.248t-0.64 1.984q0 1.44 1.024 2.432t2.432 0.992 2.432-0.992 0.992-2.432q0-1.088-0.64-1.984t-1.664-1.248v-3.616q0-1.12 0.448-1.664 2.368 1.856 5.28 1.856t5.28-1.856q0.416 0.544 0.416 1.664v1.12q-1.888 0-3.232 1.344t-1.312 3.232v1.6q-0.576 0.512-0.576 1.28 0 0.704 0.48 1.184t1.216 0.512 1.216-0.512 0.512-1.184q0-0.768-0.576-1.28v-1.6q0-0.928 0.672-1.6t1.6-0.672 1.632 0.672 0.672 1.6v1.6q-0.576 0.512-0.576 1.28 0 0.704 0.512 1.184t1.216 0.512 1.216-0.512 0.48-1.184q0-0.768-0.576-1.28v-1.6q0-1.216-0.608-2.272t-1.664-1.664q0-0.192 0-0.768t0-0.864-0.032-0.736-0.128-0.832-0.224-0.704q1.216 0.256 2.144 1.056t1.44 1.856 0.832 2.368 0.448 2.464 0.096 2.336zM19.424 9.152q0 2.816-2.016 4.832t-4.832 2.016-4.864-2.016-1.984-4.832 1.984-4.864 4.864-2.016 4.832 2.016 2.016 4.864z"></path>
</symbol>
<symbol id="icon-instagram" viewBox="0 0 27 32">
<path d="M18.272 16q0-1.888-1.312-3.232t-3.232-1.344-3.232 1.344-1.344 3.232 1.344 3.232 3.232 1.344 3.232-1.344 1.312-3.232zM20.736 16q0 2.912-2.048 4.992t-4.96 2.048-4.992-2.048-2.048-4.992 2.048-4.992 4.992-2.048 4.96 2.048 2.048 4.992zM22.688 8.672q0 0.672-0.48 1.152t-1.184 0.48-1.152-0.48-0.48-1.152 0.48-1.152 1.152-0.48 1.184 0.48 0.48 1.152zM13.728 4.736q-0.128 0-1.376 0t-1.888 0-1.728 0.064-1.824 0.16-1.28 0.352q-0.896 0.352-1.568 1.024t-1.056 1.568q-0.192 0.512-0.32 1.28t-0.192 1.856-0.032 1.696 0 1.888 0 1.376 0 1.376 0 1.888 0.032 1.696 0.192 1.856 0.32 1.28q0.384 0.896 1.056 1.568t1.568 1.024q0.512 0.192 1.28 0.352t1.824 0.16 1.728 0.064 1.888 0 1.376 0 1.344 0 1.888 0 1.728-0.064 1.856-0.16 1.248-0.352q0.896-0.352 1.6-1.024t1.024-1.568q0.192-0.512 0.32-1.28t0.192-1.856 0.032-1.696 0-1.888 0-1.376 0-1.376 0-1.888-0.032-1.696-0.192-1.856-0.32-1.28q-0.352-0.896-1.024-1.568t-1.6-1.024q-0.512-0.192-1.248-0.352t-1.856-0.16-1.728-0.064-1.888 0-1.344 0zM27.424 16q0 4.096-0.096 5.664-0.16 3.712-2.208 5.76t-5.728 2.208q-1.6 0.096-5.664 0.096t-5.664-0.096q-3.712-0.192-5.76-2.208t-2.208-5.76q-0.096-1.568-0.096-5.664t0.096-5.664q0.16-3.712 2.208-5.76t5.76-2.208q1.568-0.096 5.664-0.096t5.664 0.096q3.712 0.192 5.728 2.208t2.208 5.76q0.096 1.568 0.096 5.664z"></path>
</symbol>
<symbol id="icon-ioxhost" viewBox="0 0 37 32">
<path d="M26.112 14.848q0 0.64-0.416 1.088t-1.12 0.448h-12.512q-0.64 0-1.088-0.448t-0.448-1.088 0.448-1.088 1.088-0.448h12.512q0.672 0 1.12 0.448t0.416 1.088zM29.952 14.848q0-1.536-0.416-3.040h-17.536q-0.64 0-1.088-0.448t-0.448-1.056q0-0.64 0.448-1.088t1.088-0.448h16.224q-1.568-2.56-4.192-4.064t-5.728-1.504q-3.168 0-5.856 1.568t-4.256 4.256-1.536 5.824q0 1.536 0.384 3.040h17.536q0.672 0 1.12 0.448t0.416 1.088q0 0.64-0.416 1.088t-1.12 0.448h-16.192q1.568 2.528 4.192 4.032t5.728 1.504q2.368 0 4.512-0.928t3.712-2.464 2.496-3.712 0.928-4.544zM36.576 10.304q0 0.608-0.448 1.056t-1.088 0.448h-2.336q0.288 1.536 0.288 3.040 0 2.976-1.152 5.728t-3.136 4.672-4.704 3.168-5.696 1.152q-4.384 0-8-2.368t-5.376-6.24h-3.392q-0.64 0-1.088-0.448t-0.448-1.088 0.448-1.088 1.088-0.448h2.368q-0.32-1.504-0.32-3.040 0-2.976 1.184-5.696t3.136-4.704 4.672-3.136 5.728-1.184q4.384 0 8 2.4t5.376 6.24h3.36q0.64 0 1.088 0.448t0.448 1.088z"></path>
</symbol>
<symbol id="icon-facebook-squared" viewBox="0 0 28 32">
<path d="M24.064 2.56q1.408 0 2.432 0.992t1.024 2.4v20.672q0 1.408-1.024 2.432t-2.432 1.024h-5.184v-9.92h3.648v-4.288h-3.648v-2.24q0-0.96 0.896-0.96h2.752v-4.864h-3.072q-2.368 0-3.968 1.728t-1.6 4.224v2.112h-3.328v4.288h3.328v9.92h-10.432q-1.408 0-2.432-1.024t-1.024-2.432v-20.672q0-1.408 1.024-2.4t2.432-0.992h20.608z"></path>
</symbol>
<symbol id="icon-star" viewBox="0 0 30 32">
<path d="M29.728 11.552q0 0.384-0.48 0.864l-6.464 6.304 1.536 8.928q0 0.128 0 0.384 0 0.352-0.192 0.608t-0.544 0.288q-0.32 0-0.704-0.224l-8.032-4.224-8 4.224q-0.384 0.224-0.736 0.224t-0.544-0.288-0.192-0.608q0-0.128 0.032-0.384l1.536-8.928-6.496-6.304q-0.448-0.48-0.448-0.864 0-0.672 0.992-0.832l8.96-1.28 4.032-8.128q0.352-0.736 0.864-0.736t0.896 0.736l4 8.128 8.96 1.28q1.024 0.16 1.024 0.832z"></path>
</symbol>
<symbol id="icon-star-empty" viewBox="0 0 30 32">
<path d="M20.32 17.92l5.44-5.312-7.52-1.088-3.392-6.816-3.36 6.816-7.552 1.088 5.472 5.312-1.312 7.52 6.752-3.552 6.752 3.552zM29.728 11.552q0 0.384-0.48 0.864l-6.464 6.304 1.536 8.928q0 0.128 0 0.384 0 0.896-0.736 0.896-0.32 0-0.704-0.224l-8.032-4.224-8 4.224q-0.384 0.224-0.736 0.224t-0.544-0.288-0.192-0.608q0-0.128 0.032-0.384l1.536-8.928-6.496-6.304q-0.448-0.48-0.448-0.864 0-0.672 0.992-0.832l8.96-1.28 4.032-8.128q0.352-0.736 0.864-0.736t0.896 0.736l4 8.128 8.96 1.28q1.024 0.16 1.024 0.832z"></path>
</symbol>
<symbol id="icon-search" viewBox="0 0 30 32">
<path d="M20.576 14.848q0-3.296-2.336-5.632t-5.664-2.368-5.664 2.368-2.336 5.632 2.336 5.664 5.664 2.336 5.664-2.336 2.336-5.664zM29.728 29.728q0 0.928-0.704 1.6t-1.6 0.672q-0.96 0-1.6-0.672l-6.112-6.112q-3.2 2.208-7.136 2.208-2.56 0-4.896-0.992t-4-2.688-2.688-4-0.992-4.896 0.992-4.864 2.688-4.032 4-2.688 4.896-0.992 4.896 0.992 4 2.688 2.688 4.032 0.992 4.864q0 3.936-2.208 7.136l6.112 6.112q0.672 0.672 0.672 1.632z"></path>
</symbol>
<symbol id="icon-cross" viewBox="0 0 32 32">
<path d="M31.708 25.708c-0-0-0-0-0-0l-9.708-9.708 9.708-9.708c0-0 0-0 0-0 0.105-0.105 0.18-0.227 0.229-0.357 0.133-0.356 0.057-0.771-0.229-1.057l-4.586-4.586c-0.286-0.286-0.702-0.361-1.057-0.229-0.13 0.048-0.252 0.124-0.357 0.228 0 0-0 0-0 0l-9.708 9.708-9.708-9.708c-0-0-0-0-0-0-0.105-0.104-0.227-0.18-0.357-0.228-0.356-0.133-0.771-0.057-1.057 0.229l-4.586 4.586c-0.286 0.286-0.361 0.702-0.229 1.057 0.049 0.13 0.124 0.252 0.229 0.357 0 0 0 0 0 0l9.708 9.708-9.708 9.708c-0 0-0 0-0 0-0.104 0.105-0.18 0.227-0.229 0.357-0.133 0.355-0.057 0.771 0.229 1.057l4.586 4.586c0.286 0.286 0.702 0.361 1.057 0.229 0.13-0.049 0.252-0.124 0.357-0.229 0-0 0-0 0-0l9.708-9.708 9.708 9.708c0 0 0 0 0 0 0.105 0.105 0.227 0.18 0.357 0.229 0.356 0.133 0.771 0.057 1.057-0.229l4.586-4.586c0.286-0.286 0.362-0.702 0.229-1.057-0.049-0.13-0.124-0.252-0.229-0.357z"></path>
</symbol>
</defs>
</svg>
